<svg width="40" height="40" fill="none" xmlns="http://www.w3.org/2000/svg"><g clip-path="url(#clip0)"><path d="M22.587 34.4c1.081 1.176.429 3.621.469 5.6h-.643c-.071-1.818.241-3.953.174-5.6zM7.459 25.829c-1.002-3.146-.656-8.143 1.532-10.003-.62-1.561-.428-4.117.383-5.335 2.443.11 3.924 1.174 5.458 2.193 1.901-.544 3.904-.81 6.51-.669 1.098.063 2.239.554 3.064.476.807-.076 1.7-.985 2.487-1.33 1.025-.454 1.893-.626 3.064-.668.563 1.277.927 3.4.386 4.953 2.223 1.902 2.99 6.516 1.914 10.288 2.528.192 5.433.016 7.742.423V0H.002v26.174c2.201-.399 4.861-.341 7.457-.345zm24.513.858c2.803.22 5.572.474 8.03 1.04v-1.363c-2.021-.287-4.404-.599-6.69-.443-.556.041-1.381-.017-1.34.767zM17.515 34.4c-1.182.894-.392 3.543-.478 5.6h.57c.036-1.778-.328-3.833-.092-5.6zM4.779 25.92a61.681 61.681 0 00-4.777.415v1.424c2.354-.617 5.056-.887 7.937-.979-.208-1.249-2.03-.906-3.16-.86zm27.193.957c-1.424 2.804-4.285 4.186-8.235 4.476.425.922 1.238 1.276 1.438 2.76.235 1.787-.195 4.224.01 5.887h14.817V27.851c-2.439-.422-5.198-.898-8.03-.973zm-17.14 9.81c-2.756.55-4.893-.077-5.938-1.808-.468-.776-.585-1.693-1.148-2.38-.564-.692-1.462-.782-1.723-1.714 3.411-.82 3.541 3.514 6.607 3.619.94.035 1.427-.272 2.297-.474.242-1.094.765-1.906 1.532-2.475-3.813-.522-6.96-1.709-8.426-4.57-2.87.14-5.53.495-8.031 1.006v12.117h14.869c.051-.98-.174-2.14-.039-3.32zM20.334 40c-.113-1.9.105-4.166-.235-5.886-.678.047-.38 1.015-.383 1.432-.008 1.416.101 3.035.006 4.453h.612V40z" fill="#fff"/></g><defs><clipPath id="clip0"><path fill="#fff" d="M0 0h40v40H0z"/></clipPath></defs></svg>