<svg width="40" height="40" fill="none" xmlns="http://www.w3.org/2000/svg"><g clip-path="url(#clip0)" fill-rule="evenodd" clip-rule="evenodd" fill="#fff"><path d="M21.661 17.965v-.059c-.012.02-.028.04-.038.059h.038z"/><path d="M0 0v40h40V0H0zm12.441 33.23H6.507V15.377h5.934v17.855zM9.474 12.94h-.039c-1.99 0-3.281-1.372-3.281-3.086 0-1.752 1.328-3.085 3.359-3.085 2.032 0 3.28 1.333 3.319 3.085 0 1.714-1.287 3.085-3.358 3.085zm24.372 20.29H27.91v-9.55c0-2.4-.858-4.037-3.006-4.037-1.641 0-2.616 1.102-3.046 2.17-.156.382-.197.912-.197 1.447v9.972h-5.937s.08-16.18 0-17.855h5.938v2.53c.788-1.213 2.196-2.949 5.35-2.949 3.906 0 6.834 2.552 6.834 8.035v10.239z"/></g><defs><clipPath id="clip0"><path fill="#fff" d="M0 0h40v40H0z"/></clipPath></defs></svg>