<svg width="40" height="40" fill="none" xmlns="http://www.w3.org/2000/svg"><path fill-rule="evenodd" clip-rule="evenodd" d="M25.128 19.72c-.56-.367-1.234-.677-2.026-.934a27.997 27.997 0 00-2.648-.7 45.367 45.367 0 01-1.67-.414 5.367 5.367 0 01-.99-.39 2.3 2.3 0 01-.76-.586 1.229 1.229 0 01-.268-.793c.001-.494.261-.915.805-1.278.54-.358 1.256-.542 2.151-.542.968-.001 1.662.169 2.084.495.432.334.804.8 1.115 1.395.246.429.473.735.69.93.222.199.542.292.95.292.453.001.84-.16 1.144-.48.303-.32.458-.684.458-1.085 0-.432-.12-.875-.36-1.327-.24-.452-.62-.882-1.135-1.29-.517-.41-1.166-.735-1.942-.982-.78-.246-1.703-.368-2.766-.368-1.333 0-2.496.185-3.483.556-.99.37-1.75.903-2.276 1.599a3.85 3.85 0 00-.787 2.38c0 .935.248 1.724.746 2.358.497.63 1.169 1.127 2.012 1.49.843.364 1.882.68 3.125.95.925.195 1.665.38 2.215.556.548.171.99.419 1.332.745.338.32.503.732.503 1.25 0 .65-.306 1.189-.945 1.63-.633.439-1.463.66-2.49.66-.75 0-1.35-.108-1.8-.326-.456-.218-.807-.496-1.056-.83a6.245 6.245 0 01-.707-1.265c-.18-.435-.402-.766-.667-.993a1.452 1.452 0 00-.975-.342c-.466 0-.86.146-1.166.437-.302.29-.458.645-.458 1.052 0 .692.25 1.401.748 2.126a5.477 5.477 0 001.932 1.736c1.118.606 2.533.905 4.243.905 1.427 0 2.662-.22 3.708-.661 1.044-.439 1.842-1.05 2.386-1.833a4.51 4.51 0 00.815-2.646c0-.814-.156-1.507-.471-2.073a3.955 3.955 0 00-1.316-1.403z" fill="#fff"/><path fill-rule="evenodd" clip-rule="evenodd" d="M0 0v40h40V0H0zm26.081 33.846a7.746 7.746 0 01-4.077-1.155c-.653.103-1.323.156-2.006.156-7.094 0-12.845-5.751-12.845-12.847 0-.683.055-1.35.156-2.004A7.764 7.764 0 0117.994 7.309 12.962 12.962 0 0120 7.151c7.096 0 12.847 5.752 12.847 12.849 0 .682-.054 1.35-.158 2.004a7.765 7.765 0 01-6.608 11.842z" fill="#fff"/></svg>