<svg width="40" height="40" fill="none" xmlns="http://www.w3.org/2000/svg"><path fill-rule="evenodd" clip-rule="evenodd" d="M0 0v40h40V0H0zm29.987 22.13c.918.896 1.889 1.74 2.713 2.73.364.437.709.889.971 1.396.373.726.035 1.522-.614 1.566l-4.033-.002c-1.04.086-1.87-.334-2.57-1.046-.556-.567-1.076-1.174-1.613-1.76a3.8 3.8 0 00-.725-.648c-.55-.357-1.029-.248-1.343.326-.32.584-.396 1.233-.425 1.884-.044.95-.331 1.198-1.285 1.244-2.04.095-3.975-.215-5.772-1.242-1.587-.906-2.815-2.188-3.884-3.636-2.084-2.824-3.68-5.925-5.113-9.114-.323-.719-.087-1.104.704-1.118 1.317-.026 2.635-.023 3.95-.002.536.01.891.315 1.096.82.712 1.75 1.583 3.416 2.677 4.961.292.412.59.82 1.011 1.111.467.322.824.217 1.044-.306.14-.332.202-.686.232-1.041.104-1.216.117-2.434-.064-3.646-.112-.758-.54-1.248-1.296-1.391-.385-.074-.327-.215-.142-.436.326-.38.632-.616 1.24-.616h4.557c.719.14.88.464.978 1.186l.004 5.066c-.009.28.14 1.109.642 1.293.402.133.67-.191.911-.447 1.092-1.158 1.87-2.528 2.567-3.945.308-.623.574-1.27.833-1.918.19-.48.488-.715 1.029-.707l4.388.006c.13 0 .262 0 .39.02.738.128.941.447.712 1.17-.358 1.131-1.06 2.076-1.744 3.023-.734 1.013-1.514 1.99-2.242 3.01-.665.932-.612 1.4.216 2.209z" fill="#fff"/></svg>